<svg width="64" height="64" viewBox="0 0 64 64" fill="none" xmlns="http://www.w3.org/2000/svg">
  <circle cx="32" cy="32" r="32" fill="#111827"/>
  <path d="M17 42c.7-.7 1.8-1.2 3-1.2h25c2 0 2.9 2.6 1.4 3.9-.7.7-1.8 1.2-3 1.2H18.4c-2 0-2.9-2.6-1.4-3.9Z" fill="#14F195"/>
  <path d="M17 19.2c.7-.7 1.8-1.2 3-1.2h25c2 0 2.9 2.6 1.4 3.9-.7.7-1.8 1.2-3 1.2H18.4c-2 0-2.9-2.6-1.4-3.9Z" fill="#14F195"/>
  <path d="M17 30.6c.7-.7 1.8-1.2 3-1.2h25c2 0 2.9 2.6 1.4 3.9-.7.7-1.8 1.2-3 1.2H18.4c-2 0-2.9-2.6-1.4-3.9Z" fill="#A0FCDD"/>
</svg>

