<svg width="1200" height="760" viewBox="0 0 1200 760" fill="none" xmlns="http://www.w3.org/2000/svg">
  <rect width="1200" height="760" rx="32" fill="#081425"/>
  <rect x="56" y="56" width="1088" height="648" rx="24" fill="#0E2038" stroke="#214266"/>
  <rect x="108" y="108" width="740" height="420" rx="18" fill="#121F34" stroke="#335578"/>
  <path d="M140 446C206 384 286 334 382 318C465 304 536 264 624 248C699 236 774 196 822 168" stroke="#4DE2D7" stroke-width="6" stroke-linecap="round"/>
  <rect x="878" y="108" width="214" height="420" rx="18" fill="#101E31" stroke="#335578"/>
  <rect x="906" y="146" width="160" height="46" rx="10" fill="#16344F"/>
  <rect x="906" y="214" width="160" height="46" rx="10" fill="#16344F"/>
  <rect x="906" y="282" width="160" height="46" rx="10" fill="#16344F"/>
  <rect x="906" y="350" width="160" height="46" rx="10" fill="#16344F"/>
  <rect x="108" y="554" width="984" height="106" rx="16" fill="#101E32" stroke="#2E4A6D"/>
</svg>

