<svg xmlns="http://www.w3.org/2000/svg" viewBox="0 0 64 64">
  <rect width="64" height="64" rx="14" fill="#180e10" />
  <circle cx="32" cy="32" r="22" fill="#ff0420" />
  <path d="M24.8 39.4c-3.2 0-5.8-2.9-5.8-6.4s2.6-6.4 5.8-6.4 5.8 2.9 5.8 6.4-2.6 6.4-5.8 6.4Zm14.4 0c-3.2 0-5.8-2.9-5.8-6.4s2.6-6.4 5.8-6.4S45 29.5 45 33s-2.6 6.4-5.8 6.4Zm-14.4-3c1.6 0 2.8-1.5 2.8-3.4s-1.3-3.4-2.8-3.4S22 31 22 33s1.3 3.4 2.8 3.4Zm14.4 0c1.6 0 2.8-1.5 2.8-3.4s-1.3-3.4-2.8-3.4-2.8 1.5-2.8 3.4 1.3 3.4 2.8 3.4Z" fill="#fff" />
</svg>
