<svg xmlns="http://www.w3.org/2000/svg" viewBox="0 0 64 64">
  <rect width="64" height="64" rx="14" fill="#0d1323" />
  <defs>
    <linearGradient id="sol-g" x1="12" x2="52" y1="12" y2="52" gradientUnits="userSpaceOnUse">
      <stop stop-color="#14f195" />
      <stop offset="1" stop-color="#9945ff" />
    </linearGradient>
  </defs>
  <path d="M16 20c0-2.2 1.8-4 4-4h30l-6 6H20c-2.2 0-4-1.8-4-4Z" fill="url(#sol-g)" />
  <path d="M16 32c0-2.2 1.8-4 4-4h30l-6 6H20c-2.2 0-4-1.8-4-4Z" fill="url(#sol-g)" />
  <path d="M16 44c0-2.2 1.8-4 4-4h30l-6 6H20c-2.2 0-4-1.8-4-4Z" fill="url(#sol-g)" />
</svg>
