<svg width="64" height="64" viewBox="0 0 64 64" fill="none" xmlns="http://www.w3.org/2000/svg">
  <circle cx="32" cy="32" r="32" fill="#F7931A"/>
  <path d="M37.1 27.4c.2-1.9-1.2-2.9-3.2-3.6l.7-2.7-1.7-.4-.6 2.6c-.4-.1-.8-.2-1.2-.3l.6-2.6-1.7-.4-.7 2.7-1-.2-2.3-.6-.4 1.8s1.2.3 1.2.3c.7.2.8.6.8.9l-.8 3.5c.1 0 .2 0 .3.1l-.3-.1-1.1 4.5c-.1.2-.3.5-.7.4 0 0-1.2-.3-1.2-.3l-.8 1.9 2.2.5 1.2.3-.7 2.8 1.7.4.7-2.7c.4.1.8.2 1.2.3l-.7 2.7 1.7.4.7-2.8c2.8.5 4.9.3 5.8-2.2.8-2 .1-3.2-1.6-4 .9-.2 1.6-.9 1.8-2.2Zm-3.1 4.4c-.6 2-3.9.9-5 .6l.9-3.7c1.1.3 4.8 1 4.1 3.1Zm.6-4.5c-.5 1.8-3.3.9-4.2.7l.8-3.3c.9.2 3.9.8 3.4 2.6Z" fill="white"/>
</svg>

